<svg viewBox="0 0 460 390" width="460" height="390" xmlns="http://www.w3.org/2000/svg" style="background:#1b4332;border-radius:8px;max-width:100%"><rect x="0" y="0" width="460" height="390" rx="10" fill="#2d6a4f"/><circle cx="230" cy="195" r="150" fill="#3a8f4e" stroke="#fff" stroke-width="2"/><line x1="80" y1="195" x2="380" y2="195" stroke="#fff" stroke-width="1" stroke-dasharray="4,3" opacity=".4"/><text x="230" y="201" text-anchor="middle" font-size="9" fill="#fff" opacity=".55" font-family="Arial,sans-serif">Ø 10–15 m</text><defs>
  <marker id="ahW11" markerWidth="8" markerHeight="8" refX="6" refY="3" orient="auto">
    <path d="M0,0 L7,3 L0,6 Z" fill="#ffe082"/></marker>
  <marker id="ahP11" markerWidth="8" markerHeight="8" refX="6" refY="3" orient="auto">
    <path d="M0,0 L7,3 L0,6 Z" fill="#1f5fbf"/></marker>
</defs><path d="M 188.9,139.8 C 191.2,147.5 203.8,144.1 206.1,151.8 C 208.4,159.5 221.0,156.1 223.3,163.8" fill="none" stroke="#ffe082" stroke-width="1.8" stroke-linecap="round" marker-end="url(#ahW11)"/><circle cx="175" cy="130" r="13" fill="#1f5fbf" stroke="#fff" stroke-width="2.2"/><circle cx="188.9" cy="139.8" r="5" fill="#fff" stroke="#333" stroke-width="1.2"/><path d="M 239.0,159.2 C 234.8,152.3 223.5,158.9 219.3,152.0 C 215.1,145.2 203.8,151.7 199.6,144.8" fill="none" stroke="#ffe082" stroke-width="1.8" stroke-linecap="round" marker-end="url(#ahW11)"/><circle cx="255" cy="165" r="13" fill="#1f5fbf" stroke="#fff" stroke-width="2.2"/><circle cx="239.0" cy="159.2" r="5" fill="#fff" stroke="#333" stroke-width="1.2"/><path d="M 297.0,113.3 C 300.9,106.2 289.6,99.6 293.4,92.6 C 297.2,85.5 285.9,79.0 289.8,71.9" fill="none" stroke="#ffe082" stroke-width="1.8" stroke-linecap="round" marker-end="url(#ahW11)"/><circle cx="300" cy="130" r="13" fill="#1f5fbf" stroke="#fff" stroke-width="2.2"/><circle cx="297.0" cy="113.3" r="5" fill="#fff" stroke="#333" stroke-width="1.2"/><path d="M 201.7,258.0 C 207.1,264.0 217.1,255.6 222.4,261.6 C 227.8,267.6 237.8,259.2 243.1,265.2" fill="none" stroke="#ffe082" stroke-width="1.8" stroke-linecap="round" marker-end="url(#ahW11)"/><circle cx="185" cy="255" r="13" fill="#1f5fbf" stroke="#fff" stroke-width="2.2"/><circle cx="201.7" cy="258.0" r="5" fill="#fff" stroke="#333" stroke-width="1.2"/><path d="M 274.1,268.0 C 266.2,269.6 268.5,282.5 260.6,284.1 C 252.7,285.7 255.0,298.6 247.1,300.2" fill="none" stroke="#ffe082" stroke-width="1.8" stroke-linecap="round" marker-end="url(#ahW11)"/><circle cx="285" cy="255" r="13" fill="#1f5fbf" stroke="#fff" stroke-width="2.2"/><circle cx="274.1" cy="268.0" r="5" fill="#fff" stroke="#333" stroke-width="1.2"/><circle cx="52.0" cy="195.0" r="13" fill="#e8821e" stroke="#fff" stroke-width="2.2"/><text x="52.0" y="199.0" text-anchor="middle" font-size="10" font-weight="800" fill="#fff" font-family="Arial,sans-serif">A</text><circle cx="319.0" cy="349.2" r="13" fill="#e8821e" stroke="#fff" stroke-width="2.2"/><text x="319.0" y="353.2" text-anchor="middle" font-size="10" font-weight="800" fill="#fff" font-family="Arial,sans-serif">A</text><circle cx="355.9" cy="69.1" r="13" fill="#e8821e" stroke="#fff" stroke-width="2.2"/><text x="355.9" y="73.1" text-anchor="middle" font-size="10" font-weight="800" fill="#fff" font-family="Arial,sans-serif">A</text><circle cx="408.0" cy="195.0" r="13" fill="#e8821e" stroke="#fff" stroke-width="2.2"/><text x="408.0" y="199.0" text-anchor="middle" font-size="10" font-weight="800" fill="#fff" font-family="Arial,sans-serif">A</text><line x1="162" y1="138" x2="65.0" y2="195.0" stroke="#1f5fbf" stroke-width="2.2" marker-end="url(#ahP11)"/><line x1="65.0" y1="200.0" x2="163" y2="144" stroke="#1f5fbf" stroke-width="2.2" marker-end="url(#ahP11)"/><line x1="306" y1="117" x2="315.0" y2="361.2" stroke="#1f5fbf" stroke-width="2.2" marker-end="url(#ahP11)"/><line x1="311.0" y1="362.2" x2="299" y2="118" stroke="#1f5fbf" stroke-width="2.2" marker-end="url(#ahP11)"/><text x="230" y="382" text-anchor="middle" font-size="9" fill="#ffe082" font-weight="600" font-family="Arial,sans-serif">Innen: dribbeln · gelegentlich Doppelpass mit Anspieler außen</text></svg>